<mxfile host="Electron" modified="2024-02-02T01:30:53.454Z" agent="Mozilla/5.0 (Windows NT 10.0; Win64; x64) AppleWebKit/537.36 (KHTML, like Gecko) draw.io/23.0.2 Chrome/120.0.6099.109 Electron/28.1.0 Safari/537.36" etag="iND90ycPDAmZEPn34Rn6" version="23.0.2" type="device">
  <diagram name="第 1 页" id="9xEEN9s3l0YqroN43Yjr">
    <mxGraphModel dx="1877" dy="621" grid="1" gridSize="10" guides="1" tooltips="1" connect="1" arrows="1" fold="1" page="1" pageScale="1" pageWidth="827" pageHeight="1169" math="0" shadow="0">
      <root>
        <mxCell id="0" />
        <mxCell id="1" parent="0" />
        <mxCell id="yw9sGsqZUSQ7WmiRopya-23" style="edgeStyle=orthogonalEdgeStyle;rounded=0;orthogonalLoop=1;jettySize=auto;html=1;exitX=1;exitY=0.5;exitDx=0;exitDy=0;entryX=0;entryY=0.5;entryDx=0;entryDy=0;fontSize=16;" parent="1" source="yw9sGsqZUSQ7WmiRopya-24" edge="1" target="ag8TiWwppG1ce-7MFRoR-6">
          <mxGeometry relative="1" as="geometry">
            <mxPoint x="370" y="310" as="targetPoint" />
          </mxGeometry>
        </mxCell>
        <mxCell id="yw9sGsqZUSQ7WmiRopya-25" style="edgeStyle=orthogonalEdgeStyle;rounded=0;orthogonalLoop=1;jettySize=auto;html=1;exitX=1;exitY=0.5;exitDx=0;exitDy=0;entryX=0;entryY=0.5;entryDx=0;entryDy=0;fontSize=16;" parent="1" edge="1" target="ag8TiWwppG1ce-7MFRoR-10" source="ag8TiWwppG1ce-7MFRoR-7">
          <mxGeometry relative="1" as="geometry">
            <mxPoint x="740.0000000000005" y="310" as="sourcePoint" />
            <mxPoint x="909.9999999999995" y="310" as="targetPoint" />
          </mxGeometry>
        </mxCell>
        <mxCell id="yw9sGsqZUSQ7WmiRopya-28" style="edgeStyle=orthogonalEdgeStyle;rounded=0;orthogonalLoop=1;jettySize=auto;html=1;exitX=1;exitY=0.5;exitDx=0;exitDy=0;fontSize=16;entryX=0;entryY=0.5;entryDx=0;entryDy=0;" parent="1" edge="1" target="ag8TiWwppG1ce-7MFRoR-7" source="ag8TiWwppG1ce-7MFRoR-6">
          <mxGeometry relative="1" as="geometry">
            <mxPoint x="580" y="310" as="sourcePoint" />
            <mxPoint x="660" y="310" as="targetPoint" />
          </mxGeometry>
        </mxCell>
        <mxCell id="yw9sGsqZUSQ7WmiRopya-43" value="" style="endArrow=classic;html=1;rounded=0;exitX=1;exitY=0.5;exitDx=0;exitDy=0;entryX=0;entryY=0.5;entryDx=0;entryDy=0;fontSize=16;" parent="1" source="yw9sGsqZUSQ7WmiRopya-61" target="ag8TiWwppG1ce-7MFRoR-9" edge="1">
          <mxGeometry width="50" height="50" relative="1" as="geometry">
            <mxPoint x="210" y="240" as="sourcePoint" />
            <mxPoint x="100" y="190" as="targetPoint" />
          </mxGeometry>
        </mxCell>
        <mxCell id="yw9sGsqZUSQ7WmiRopya-44" value="" style="endArrow=classic;html=1;rounded=0;exitX=1;exitY=0.5;exitDx=0;exitDy=0;entryX=0;entryY=0.5;entryDx=0;entryDy=0;fontSize=16;" parent="1" source="yw9sGsqZUSQ7WmiRopya-60" target="ag8TiWwppG1ce-7MFRoR-2" edge="1">
          <mxGeometry width="50" height="50" relative="1" as="geometry">
            <mxPoint x="40" y="200" as="sourcePoint" />
            <mxPoint x="80" y="200" as="targetPoint" />
          </mxGeometry>
        </mxCell>
        <mxCell id="yw9sGsqZUSQ7WmiRopya-45" value="" style="endArrow=classic;html=1;rounded=0;exitX=1;exitY=0.5;exitDx=0;exitDy=0;entryX=0;entryY=0.5;entryDx=0;entryDy=0;fontSize=16;" parent="1" source="yw9sGsqZUSQ7WmiRopya-59" target="ag8TiWwppG1ce-7MFRoR-1" edge="1">
          <mxGeometry width="50" height="50" relative="1" as="geometry">
            <mxPoint x="40" y="260" as="sourcePoint" />
            <mxPoint x="80" y="260" as="targetPoint" />
          </mxGeometry>
        </mxCell>
        <mxCell id="yw9sGsqZUSQ7WmiRopya-46" value="" style="endArrow=classic;html=1;rounded=0;exitX=1;exitY=0.5;exitDx=0;exitDy=0;entryX=0;entryY=0.5;entryDx=0;entryDy=0;fontSize=16;" parent="1" source="yw9sGsqZUSQ7WmiRopya-154" target="yw9sGsqZUSQ7WmiRopya-24" edge="1">
          <mxGeometry width="50" height="50" relative="1" as="geometry">
            <mxPoint x="40" y="320" as="sourcePoint" />
            <mxPoint x="80" y="320" as="targetPoint" />
          </mxGeometry>
        </mxCell>
        <mxCell id="yw9sGsqZUSQ7WmiRopya-104" style="edgeStyle=orthogonalEdgeStyle;rounded=0;orthogonalLoop=1;jettySize=auto;html=1;exitX=1;exitY=0.5;exitDx=0;exitDy=0;entryX=0;entryY=0.5;entryDx=0;entryDy=0;fontSize=16;" parent="1" source="yw9sGsqZUSQ7WmiRopya-105" target="yw9sGsqZUSQ7WmiRopya-109" edge="1">
          <mxGeometry relative="1" as="geometry" />
        </mxCell>
        <mxCell id="yw9sGsqZUSQ7WmiRopya-106" style="edgeStyle=orthogonalEdgeStyle;rounded=0;orthogonalLoop=1;jettySize=auto;html=1;exitX=1;exitY=0.5;exitDx=0;exitDy=0;entryX=0;entryY=0.5;entryDx=0;entryDy=0;fontSize=16;" parent="1" source="yw9sGsqZUSQ7WmiRopya-107" target="yw9sGsqZUSQ7WmiRopya-105" edge="1">
          <mxGeometry relative="1" as="geometry" />
        </mxCell>
        <mxCell id="yw9sGsqZUSQ7WmiRopya-107" value="[0, 3]" style="rounded=0;whiteSpace=wrap;html=1;fontSize=16;" parent="1" vertex="1">
          <mxGeometry x="10" y="340" width="60" height="60" as="geometry" />
        </mxCell>
        <mxCell id="yw9sGsqZUSQ7WmiRopya-108" style="edgeStyle=orthogonalEdgeStyle;rounded=0;orthogonalLoop=1;jettySize=auto;html=1;exitX=1;exitY=0.5;exitDx=0;exitDy=0;entryX=0;entryY=0.5;entryDx=0;entryDy=0;fontSize=16;" parent="1" source="yw9sGsqZUSQ7WmiRopya-109" target="yw9sGsqZUSQ7WmiRopya-133" edge="1">
          <mxGeometry relative="1" as="geometry" />
        </mxCell>
        <mxCell id="yw9sGsqZUSQ7WmiRopya-110" style="edgeStyle=orthogonalEdgeStyle;rounded=0;orthogonalLoop=1;jettySize=auto;html=1;exitX=1;exitY=0.5;exitDx=0;exitDy=0;entryX=0;entryY=0.5;entryDx=0;entryDy=0;fontSize=16;" parent="1" source="yw9sGsqZUSQ7WmiRopya-111" target="yw9sGsqZUSQ7WmiRopya-135" edge="1">
          <mxGeometry relative="1" as="geometry" />
        </mxCell>
        <mxCell id="yw9sGsqZUSQ7WmiRopya-111" value="[15, 23]" style="rounded=0;whiteSpace=wrap;html=1;fontSize=16;" parent="1" vertex="1">
          <mxGeometry x="370" y="340" width="60" height="60" as="geometry" />
        </mxCell>
        <mxCell id="yw9sGsqZUSQ7WmiRopya-112" style="edgeStyle=orthogonalEdgeStyle;rounded=0;orthogonalLoop=1;jettySize=auto;html=1;entryX=0;entryY=0.5;entryDx=0;entryDy=0;fontSize=16;" parent="1" target="yw9sGsqZUSQ7WmiRopya-115" edge="1">
          <mxGeometry relative="1" as="geometry">
            <mxPoint x="600" y="370" as="sourcePoint" />
          </mxGeometry>
        </mxCell>
        <mxCell id="yw9sGsqZUSQ7WmiRopya-113" value="[17, 19]" style="rounded=0;whiteSpace=wrap;html=1;fontSize=16;" parent="1" vertex="1">
          <mxGeometry x="550" y="340" width="60" height="60" as="geometry" />
        </mxCell>
        <mxCell id="yw9sGsqZUSQ7WmiRopya-114" style="edgeStyle=orthogonalEdgeStyle;rounded=0;orthogonalLoop=1;jettySize=auto;html=1;exitX=1;exitY=0.5;exitDx=0;exitDy=0;entryX=0;entryY=0.5;entryDx=0;entryDy=0;fontSize=16;" parent="1" source="yw9sGsqZUSQ7WmiRopya-115" target="yw9sGsqZUSQ7WmiRopya-117" edge="1">
          <mxGeometry relative="1" as="geometry" />
        </mxCell>
        <mxCell id="yw9sGsqZUSQ7WmiRopya-115" value="[19, 20]" style="rounded=0;whiteSpace=wrap;html=1;fontSize=16;" parent="1" vertex="1">
          <mxGeometry x="640" y="340" width="60" height="60" as="geometry" />
        </mxCell>
        <mxCell id="yw9sGsqZUSQ7WmiRopya-116" style="edgeStyle=orthogonalEdgeStyle;rounded=0;orthogonalLoop=1;jettySize=auto;html=1;exitX=1;exitY=0.5;exitDx=0;exitDy=0;entryX=0;entryY=0.5;entryDx=0;entryDy=0;fontSize=16;" parent="1" source="yw9sGsqZUSQ7WmiRopya-117" target="yw9sGsqZUSQ7WmiRopya-137" edge="1">
          <mxGeometry relative="1" as="geometry" />
        </mxCell>
        <mxCell id="yw9sGsqZUSQ7WmiRopya-117" value="[25, 30]" style="rounded=0;whiteSpace=wrap;html=1;fontSize=16;" parent="1" vertex="1">
          <mxGeometry x="730" y="340" width="60" height="60" as="geometry" />
        </mxCell>
        <mxCell id="yw9sGsqZUSQ7WmiRopya-130" style="edgeStyle=orthogonalEdgeStyle;rounded=0;orthogonalLoop=1;jettySize=auto;html=1;exitX=1;exitY=0.5;exitDx=0;exitDy=0;entryX=0;entryY=0.5;entryDx=0;entryDy=0;fontSize=16;" parent="1" target="yw9sGsqZUSQ7WmiRopya-164" edge="1">
          <mxGeometry relative="1" as="geometry">
            <mxPoint x="879.9999999999995" y="370" as="sourcePoint" />
          </mxGeometry>
        </mxCell>
        <mxCell id="yw9sGsqZUSQ7WmiRopya-132" style="edgeStyle=orthogonalEdgeStyle;rounded=0;orthogonalLoop=1;jettySize=auto;html=1;exitX=1;exitY=0.5;exitDx=0;exitDy=0;entryX=0;entryY=0.5;entryDx=0;entryDy=0;fontSize=16;" parent="1" source="yw9sGsqZUSQ7WmiRopya-133" target="yw9sGsqZUSQ7WmiRopya-111" edge="1">
          <mxGeometry relative="1" as="geometry" />
        </mxCell>
        <mxCell id="yw9sGsqZUSQ7WmiRopya-133" value="[8, 9]" style="rounded=0;whiteSpace=wrap;html=1;fontSize=16;" parent="1" vertex="1">
          <mxGeometry x="280" y="340" width="60" height="60" as="geometry" />
        </mxCell>
        <mxCell id="yw9sGsqZUSQ7WmiRopya-134" style="edgeStyle=orthogonalEdgeStyle;rounded=0;orthogonalLoop=1;jettySize=auto;html=1;exitX=1;exitY=0.5;exitDx=0;exitDy=0;entryX=0;entryY=0.5;entryDx=0;entryDy=0;fontSize=16;" parent="1" source="yw9sGsqZUSQ7WmiRopya-135" target="yw9sGsqZUSQ7WmiRopya-113" edge="1">
          <mxGeometry relative="1" as="geometry" />
        </mxCell>
        <mxCell id="yw9sGsqZUSQ7WmiRopya-135" value="[16, 21]" style="rounded=0;whiteSpace=wrap;html=1;fontSize=16;" parent="1" vertex="1">
          <mxGeometry x="460" y="340" width="60" height="60" as="geometry" />
        </mxCell>
        <mxCell id="yw9sGsqZUSQ7WmiRopya-137" value="[26, 26]" style="rounded=0;whiteSpace=wrap;html=1;fontSize=16;" parent="1" vertex="1">
          <mxGeometry x="820" y="340" width="60" height="60" as="geometry" />
        </mxCell>
        <mxCell id="yw9sGsqZUSQ7WmiRopya-148" style="edgeStyle=orthogonalEdgeStyle;rounded=0;orthogonalLoop=1;jettySize=auto;html=1;exitX=1;exitY=0.5;exitDx=0;exitDy=0;entryX=0;entryY=0.5;entryDx=0;entryDy=0;fontSize=16;" parent="1" source="yw9sGsqZUSQ7WmiRopya-149" target="yw9sGsqZUSQ7WmiRopya-107" edge="1">
          <mxGeometry relative="1" as="geometry" />
        </mxCell>
        <mxCell id="yw9sGsqZUSQ7WmiRopya-150" value="level 1" style="text;html=1;strokeColor=none;fillColor=none;align=center;verticalAlign=middle;whiteSpace=wrap;rounded=0;fontSize=16;" parent="1" vertex="1">
          <mxGeometry x="-140" y="295" width="60" height="30" as="geometry" />
        </mxCell>
        <mxCell id="yw9sGsqZUSQ7WmiRopya-151" value="level 2" style="text;html=1;strokeColor=none;fillColor=none;align=center;verticalAlign=middle;whiteSpace=wrap;rounded=0;fontSize=16;" parent="1" vertex="1">
          <mxGeometry x="-140" y="235" width="60" height="30" as="geometry" />
        </mxCell>
        <mxCell id="yw9sGsqZUSQ7WmiRopya-152" value="level 3" style="text;html=1;strokeColor=none;fillColor=none;align=center;verticalAlign=middle;whiteSpace=wrap;rounded=0;fontSize=16;" parent="1" vertex="1">
          <mxGeometry x="-140" y="180" width="60" height="30" as="geometry" />
        </mxCell>
        <mxCell id="yw9sGsqZUSQ7WmiRopya-158" value="" style="edgeStyle=orthogonalEdgeStyle;rounded=0;orthogonalLoop=1;jettySize=auto;html=1;fontSize=16;entryX=0;entryY=0.5;entryDx=0;entryDy=0;" parent="1" edge="1" target="ag8TiWwppG1ce-7MFRoR-8">
          <mxGeometry relative="1" as="geometry">
            <mxPoint x="340" y="250" as="targetPoint" />
            <mxPoint x="155" y="250" as="sourcePoint" />
          </mxGeometry>
        </mxCell>
        <mxCell id="yw9sGsqZUSQ7WmiRopya-165" style="edgeStyle=orthogonalEdgeStyle;rounded=0;orthogonalLoop=1;jettySize=auto;html=1;exitX=0.5;exitY=1;exitDx=0;exitDy=0;entryX=0.5;entryY=0;entryDx=0;entryDy=0;" parent="1" source="yw9sGsqZUSQ7WmiRopya-166" target="yw9sGsqZUSQ7WmiRopya-64" edge="1">
          <mxGeometry relative="1" as="geometry">
            <mxPoint x="-44.57142857142844" y="100" as="targetPoint" />
          </mxGeometry>
        </mxCell>
        <mxCell id="yw9sGsqZUSQ7WmiRopya-166" value="&lt;font style=&quot;font-size: 16px;&quot;&gt;head&lt;/font&gt;" style="text;html=1;strokeColor=none;fillColor=none;align=center;verticalAlign=middle;whiteSpace=wrap;rounded=0;" parent="1" vertex="1">
          <mxGeometry x="-80" y="100" width="60" height="30" as="geometry" />
        </mxCell>
        <mxCell id="yw9sGsqZUSQ7WmiRopya-171" value="" style="endArrow=none;html=1;rounded=0;fontColor=#FFFFFF;strokeColor=#FFFFFF;" parent="1" edge="1">
          <mxGeometry width="50" height="50" relative="1" as="geometry">
            <mxPoint x="-160" y="430" as="sourcePoint" />
            <mxPoint x="1000" y="430" as="targetPoint" />
          </mxGeometry>
        </mxCell>
        <mxCell id="yw9sGsqZUSQ7WmiRopya-173" value="数据链表" style="text;html=1;strokeColor=none;fillColor=none;align=center;verticalAlign=middle;whiteSpace=wrap;rounded=0;" parent="1" vertex="1">
          <mxGeometry x="-140" y="355" width="60" height="30" as="geometry" />
        </mxCell>
        <mxCell id="yw9sGsqZUSQ7WmiRopya-59" value="" style="rounded=0;whiteSpace=wrap;html=1;container=0;fontSize=16;" parent="1" vertex="1">
          <mxGeometry x="-70" y="280" width="50" height="60" as="geometry" />
        </mxCell>
        <mxCell id="yw9sGsqZUSQ7WmiRopya-60" value="" style="rounded=0;whiteSpace=wrap;html=1;container=0;fontSize=16;" parent="1" vertex="1">
          <mxGeometry x="-70" y="220" width="50" height="60" as="geometry" />
        </mxCell>
        <mxCell id="yw9sGsqZUSQ7WmiRopya-61" value="" style="rounded=0;whiteSpace=wrap;html=1;container=0;fontSize=16;" parent="1" vertex="1">
          <mxGeometry x="-70" y="160" width="50" height="60" as="geometry" />
        </mxCell>
        <mxCell id="yw9sGsqZUSQ7WmiRopya-175" value="" style="group" parent="1" vertex="1" connectable="0">
          <mxGeometry x="-80" y="160" width="60" height="240" as="geometry" />
        </mxCell>
        <mxCell id="yw9sGsqZUSQ7WmiRopya-149" value="null" style="rounded=0;whiteSpace=wrap;html=1;fontSize=16;" parent="yw9sGsqZUSQ7WmiRopya-175" vertex="1">
          <mxGeometry y="180" width="60" height="60" as="geometry" />
        </mxCell>
        <mxCell id="yw9sGsqZUSQ7WmiRopya-62" value="null&lt;br&gt;——&lt;br&gt;-∞" style="rounded=0;whiteSpace=wrap;html=1;fontSize=16;" parent="yw9sGsqZUSQ7WmiRopya-175" vertex="1">
          <mxGeometry y="120" width="60" height="60" as="geometry" />
        </mxCell>
        <mxCell id="yw9sGsqZUSQ7WmiRopya-63" value="null&lt;br&gt;——&lt;br&gt;-∞" style="rounded=0;whiteSpace=wrap;html=1;fontSize=16;" parent="yw9sGsqZUSQ7WmiRopya-175" vertex="1">
          <mxGeometry y="60" width="60" height="60" as="geometry" />
        </mxCell>
        <mxCell id="yw9sGsqZUSQ7WmiRopya-64" value="null&lt;br&gt;——&lt;br&gt;-∞" style="rounded=0;whiteSpace=wrap;html=1;fontSize=16;" parent="yw9sGsqZUSQ7WmiRopya-175" vertex="1">
          <mxGeometry width="60" height="60" as="geometry" />
        </mxCell>
        <mxCell id="yw9sGsqZUSQ7WmiRopya-41" style="edgeStyle=orthogonalEdgeStyle;rounded=0;orthogonalLoop=1;jettySize=auto;html=1;exitX=1;exitY=0.5;exitDx=0;exitDy=0;fontSize=16;" parent="1" target="yw9sGsqZUSQ7WmiRopya-87" edge="1">
          <mxGeometry relative="1" as="geometry">
            <mxPoint x="922" y="310" as="sourcePoint" />
          </mxGeometry>
        </mxCell>
        <mxCell id="yw9sGsqZUSQ7WmiRopya-164" value="null" style="rounded=0;whiteSpace=wrap;html=1;fontSize=16;" parent="1" vertex="1">
          <mxGeometry x="910" y="340" width="60" height="60" as="geometry" />
        </mxCell>
        <mxCell id="yw9sGsqZUSQ7WmiRopya-87" value="" style="rounded=0;whiteSpace=wrap;html=1;fontSize=16;" parent="1" vertex="1">
          <mxGeometry x="910" y="280" width="60" height="60" as="geometry" />
        </mxCell>
        <mxCell id="yw9sGsqZUSQ7WmiRopya-88" value="" style="rounded=0;whiteSpace=wrap;html=1;fontSize=16;" parent="1" vertex="1">
          <mxGeometry x="910" y="220" width="60" height="60" as="geometry" />
        </mxCell>
        <mxCell id="yw9sGsqZUSQ7WmiRopya-89" value="" style="rounded=0;whiteSpace=wrap;html=1;fontSize=16;" parent="1" vertex="1">
          <mxGeometry x="910" y="160" width="60" height="60" as="geometry" />
        </mxCell>
        <mxCell id="yw9sGsqZUSQ7WmiRopya-90" value="null" style="text;html=1;align=center;verticalAlign=middle;resizable=0;points=[];autosize=1;strokeColor=none;fillColor=none;fontSize=16;" parent="1" vertex="1">
          <mxGeometry x="915" y="295" width="50" height="30" as="geometry" />
        </mxCell>
        <mxCell id="yw9sGsqZUSQ7WmiRopya-91" value="null" style="text;html=1;align=center;verticalAlign=middle;resizable=0;points=[];autosize=1;strokeColor=none;fillColor=none;fontSize=16;" parent="1" vertex="1">
          <mxGeometry x="915" y="235" width="50" height="30" as="geometry" />
        </mxCell>
        <mxCell id="yw9sGsqZUSQ7WmiRopya-92" value="null" style="text;html=1;align=center;verticalAlign=middle;resizable=0;points=[];autosize=1;strokeColor=none;fillColor=none;fontSize=16;" parent="1" vertex="1">
          <mxGeometry x="915" y="175" width="50" height="30" as="geometry" />
        </mxCell>
        <mxCell id="yw9sGsqZUSQ7WmiRopya-105" value="[5, 8]" style="rounded=0;whiteSpace=wrap;html=1;fontSize=16;container=0;" parent="1" vertex="1">
          <mxGeometry x="100" y="340" width="60" height="60" as="geometry" />
        </mxCell>
        <mxCell id="yw9sGsqZUSQ7WmiRopya-154" value="[5, 8]&lt;br style=&quot;border-color: var(--border-color);&quot;&gt;——&lt;br style=&quot;border-color: var(--border-color);&quot;&gt;8" style="rounded=0;whiteSpace=wrap;html=1;container=0;fontSize=16;" parent="1" vertex="1">
          <mxGeometry x="100" y="280" width="60" height="60" as="geometry" />
        </mxCell>
        <mxCell id="yw9sGsqZUSQ7WmiRopya-155" value="[5, 8]&lt;br style=&quot;border-color: var(--border-color);&quot;&gt;——&lt;br style=&quot;border-color: var(--border-color);&quot;&gt;8" style="rounded=0;whiteSpace=wrap;html=1;container=0;fontSize=16;" parent="1" vertex="1">
          <mxGeometry x="100" y="220" width="60" height="60" as="geometry" />
        </mxCell>
        <mxCell id="ag8TiWwppG1ce-7MFRoR-5" style="edgeStyle=orthogonalEdgeStyle;rounded=0;orthogonalLoop=1;jettySize=auto;html=1;exitX=1;exitY=0.5;exitDx=0;exitDy=0;entryX=0;entryY=0.5;entryDx=0;entryDy=0;" edge="1" parent="1" source="ag8TiWwppG1ce-7MFRoR-1" target="yw9sGsqZUSQ7WmiRopya-154">
          <mxGeometry relative="1" as="geometry" />
        </mxCell>
        <mxCell id="ag8TiWwppG1ce-7MFRoR-1" value="[0, 3]&lt;br style=&quot;border-color: var(--border-color);&quot;&gt;——&lt;br style=&quot;border-color: var(--border-color);&quot;&gt;3" style="rounded=0;whiteSpace=wrap;html=1;container=0;fontSize=16;" vertex="1" parent="1">
          <mxGeometry x="10" y="280" width="60" height="60" as="geometry" />
        </mxCell>
        <mxCell id="ag8TiWwppG1ce-7MFRoR-4" style="edgeStyle=orthogonalEdgeStyle;rounded=0;orthogonalLoop=1;jettySize=auto;html=1;exitX=1;exitY=0.5;exitDx=0;exitDy=0;entryX=0;entryY=0.5;entryDx=0;entryDy=0;" edge="1" parent="1" source="ag8TiWwppG1ce-7MFRoR-2" target="yw9sGsqZUSQ7WmiRopya-155">
          <mxGeometry relative="1" as="geometry" />
        </mxCell>
        <mxCell id="ag8TiWwppG1ce-7MFRoR-2" value="[0, 3]&lt;br&gt;——&lt;br&gt;3" style="rounded=0;whiteSpace=wrap;html=1;container=0;fontSize=16;" vertex="1" parent="1">
          <mxGeometry x="10" y="220" width="60" height="60" as="geometry" />
        </mxCell>
        <mxCell id="yw9sGsqZUSQ7WmiRopya-24" value="[8, 9]&lt;br&gt;——&lt;br&gt;10" style="rounded=0;whiteSpace=wrap;html=1;fontSize=16;" parent="1" vertex="1">
          <mxGeometry x="280" y="280" width="60" height="60" as="geometry" />
        </mxCell>
        <mxCell id="yw9sGsqZUSQ7WmiRopya-109" value="[6, 10]" style="rounded=0;whiteSpace=wrap;html=1;fontSize=16;" parent="1" vertex="1">
          <mxGeometry x="190" y="340" width="60" height="60" as="geometry" />
        </mxCell>
        <mxCell id="ag8TiWwppG1ce-7MFRoR-6" value="[16, 21]&lt;br&gt;——&lt;br&gt;23" style="rounded=0;whiteSpace=wrap;html=1;fontSize=16;" vertex="1" parent="1">
          <mxGeometry x="460" y="280" width="60" height="60" as="geometry" />
        </mxCell>
        <mxCell id="ag8TiWwppG1ce-7MFRoR-7" value="[25, 30]&lt;br&gt;——&lt;br&gt;30" style="rounded=0;whiteSpace=wrap;html=1;fontSize=16;" vertex="1" parent="1">
          <mxGeometry x="730" y="280" width="60" height="60" as="geometry" />
        </mxCell>
        <mxCell id="ag8TiWwppG1ce-7MFRoR-12" style="edgeStyle=orthogonalEdgeStyle;rounded=0;orthogonalLoop=1;jettySize=auto;html=1;exitX=1;exitY=0.5;exitDx=0;exitDy=0;entryX=0;entryY=0.5;entryDx=0;entryDy=0;" edge="1" parent="1" source="ag8TiWwppG1ce-7MFRoR-8" target="yw9sGsqZUSQ7WmiRopya-88">
          <mxGeometry relative="1" as="geometry" />
        </mxCell>
        <mxCell id="ag8TiWwppG1ce-7MFRoR-8" value="[25, 30]&lt;br style=&quot;border-color: var(--border-color);&quot;&gt;——&lt;br style=&quot;border-color: var(--border-color);&quot;&gt;30" style="rounded=0;whiteSpace=wrap;html=1;fontSize=16;" vertex="1" parent="1">
          <mxGeometry x="730" y="220" width="60" height="60" as="geometry" />
        </mxCell>
        <mxCell id="ag8TiWwppG1ce-7MFRoR-13" style="edgeStyle=orthogonalEdgeStyle;rounded=0;orthogonalLoop=1;jettySize=auto;html=1;exitX=1;exitY=0.5;exitDx=0;exitDy=0;entryX=0;entryY=0.5;entryDx=0;entryDy=0;" edge="1" parent="1" source="ag8TiWwppG1ce-7MFRoR-9" target="yw9sGsqZUSQ7WmiRopya-89">
          <mxGeometry relative="1" as="geometry" />
        </mxCell>
        <mxCell id="ag8TiWwppG1ce-7MFRoR-9" value="[25, 30]&lt;br style=&quot;border-color: var(--border-color);&quot;&gt;——&lt;br style=&quot;border-color: var(--border-color);&quot;&gt;30" style="rounded=0;whiteSpace=wrap;html=1;fontSize=16;" vertex="1" parent="1">
          <mxGeometry x="730" y="160" width="60" height="60" as="geometry" />
        </mxCell>
        <mxCell id="ag8TiWwppG1ce-7MFRoR-11" style="edgeStyle=orthogonalEdgeStyle;rounded=0;orthogonalLoop=1;jettySize=auto;html=1;exitX=1;exitY=0.5;exitDx=0;exitDy=0;entryX=0;entryY=0.5;entryDx=0;entryDy=0;" edge="1" parent="1" source="ag8TiWwppG1ce-7MFRoR-10" target="yw9sGsqZUSQ7WmiRopya-87">
          <mxGeometry relative="1" as="geometry" />
        </mxCell>
        <mxCell id="ag8TiWwppG1ce-7MFRoR-10" value="[26, 26]&lt;br&gt;——&lt;br&gt;26" style="rounded=0;whiteSpace=wrap;html=1;fontSize=16;" vertex="1" parent="1">
          <mxGeometry x="820" y="280" width="60" height="60" as="geometry" />
        </mxCell>
      </root>
    </mxGraphModel>
  </diagram>
</mxfile>
